<?xml version="1.0" encoding="UTF-8"?>
<svg width="40px" height="40px" viewBox="0 0 40 40" version="1.1" xmlns="http://www.w3.org/2000/svg" xmlns:xlink="http://www.w3.org/1999/xlink">
    <!-- Generator: sketchtool 54.1 (76490) - https://sketchapp.com -->
    <title>552C3A9E-993A-4345-991A-007C5CCBD49E</title>
    <desc>Created with sketchtool.</desc>
    <g id="Symbols" stroke="none" stroke-width="1" fill="none" fill-rule="evenodd">
        <g id="Footer" transform="translate(-108.000000, -88.000000)" fill="#1C252B">
            <g id="Logo-Symbol" transform="translate(108.000000, 88.000000)">
                <path d="M34.2321357,3.6301334 C31.2747974,1.41701348 27.2323247,0.284932063 22.2332699,0.0495675153 C21.569397,0.0183746235 20.8913454,0.0001 20.1937589,0.0001 C19.3603731,0.0001 18.5521936,0.0215254206 17.767015,0.0637461025 C13.2711425,0.304782085 9.57305191,1.24876091 6.73544399,3.01604303 C2.55969253,5.98692967 0.464097341,11.0530964 0.0705627765,17.7687055 C0.0245611381,18.5551444 0.0003,19.3626937 0.0003,20.1935589 C0.0003,20.8905153 0.0188897032,21.5682517 0.0513429139,22.2314945 C0.360121035,28.5702683 2.16237701,33.367672 5.76814927,36.3700666 C8.72548747,38.5831865 12.7679602,39.715583 17.767015,39.9506325 C18.431203,39.9818254 19.1089395,40.0001 19.806526,40.0001 C20.6399118,40.0001 21.4480913,39.9786746 22.2332699,39.9364539 C26.7291424,39.6954179 30.427233,38.7514391 33.265156,36.984157 C37.4405924,34.0132703 39.5365027,28.9471036 39.9297221,22.2314945 C39.9757238,21.4450556 40.0003,20.6375063 40.0003,19.8066411 C40.0003,19.1096847 39.9813952,18.4319483 39.948942,17.7687055 C39.6401639,11.4299317 37.838223,6.632528 34.2321357,3.6301334 L34.2321357,3.6301334 Z M13.3332132,20.0001 C13.3332132,22.4678043 14.6732473,24.6220043 16.6658114,25.7745659 L13.3319529,31.5499771 C9.34713975,29.2442238 6.66644153,24.9351936 6.66644153,20.0001 C6.66644153,12.6354267 12.636572,6.66561137 19.9999849,6.66561137 C22.4286194,6.66561137 24.7060155,7.31499067 26.6673868,8.45053796 L23.3332132,14.2256341 C22.3526852,13.6575453 21.2139871,13.3330132 19.9999849,13.3330132 C16.3179634,13.3330132 13.3332132,16.3177634 13.3332132,20.0001 L13.3332132,20.0001 Z M26.6664415,31.5477716 C25.0724533,32.4687496 23.0338875,31.9227164 22.1132246,30.3277829 C21.1991783,28.7448224 21.731348,26.7242162 23.2991846,25.794731 C23.3199799,25.7833882 23.3407751,25.7714151 23.3606252,25.758812 C24.9511476,24.8592594 26.9720689,25.4093886 27.8864302,26.9942395 C28.8074082,28.588858 28.2613751,30.6277388 26.6664415,31.5477716 L26.6664415,31.5477716 Z" id="Fill-1"></path>
            </g>
        </g>
    </g>
</svg>