<svg width="12" height="8" viewBox="0 0 12 8" fill="none" xmlns="http://www.w3.org/2000/svg">
<path d="M3.31768 0.366212L0.118296 3.56559C0.0808123 3.60277 0.0510605 3.647 0.0307569 3.69574C0.0104534 3.74447 0 3.79674 0 3.84954C0 3.90233 0.0104534 3.95461 0.0307569 4.00334C0.0510605 4.05207 0.0808123 4.09631 0.118296 4.13348L3.31768 7.33287C3.35353 7.37473 3.39765 7.40873 3.44727 7.43274C3.49688 7.45674 3.55092 7.47023 3.606 7.47236C3.66108 7.47449 3.716 7.46521 3.76732 7.4451C3.81864 7.42499 3.86525 7.3945 3.90422 7.35552C3.9432 7.31655 3.9737 7.26994 3.9938 7.21862C4.01391 7.1673 4.02319 7.11237 4.02106 7.0573C4.01893 7.00222 4.00544 6.94818 3.98144 6.89856C3.95744 6.84894 3.92343 6.80483 3.88157 6.76897L1.36606 4.24946L11.6001 4.24946C11.7061 4.24946 11.8079 4.20733 11.8829 4.13233C11.9579 4.05733 12 3.9556 12 3.84954C12 3.74347 11.9579 3.64175 11.8829 3.56675C11.8079 3.49175 11.7061 3.44962 11.6001 3.44962L1.36606 3.44962L3.88157 0.934102C3.91886 0.897076 3.94849 0.853068 3.96877 0.804592C3.98905 0.756115 3.99958 0.704119 3.99977 0.651571C3.99995 0.599023 3.98979 0.546953 3.96985 0.498334C3.94991 0.449715 3.92059 0.405499 3.88357 0.368211C3.84654 0.330922 3.80254 0.301294 3.75406 0.281013C3.70558 0.260732 3.65358 0.250197 3.60104 0.250011C3.54849 0.249826 3.49642 0.259993 3.4478 0.27993C3.39918 0.299868 3.35497 0.329186 3.31768 0.366212Z" fill="#76787B"/>
</svg>
