<svg width="12" height="8" viewBox="0 0 12 8" fill="none" xmlns="http://www.w3.org/2000/svg">
<path d="M8.68232 7.35644L11.8817 4.15706C11.9192 4.11988 11.9489 4.07565 11.9692 4.02692C11.9895 3.97818 12 3.92591 12 3.87312C12 3.82032 11.9895 3.76805 11.9692 3.71932C11.9489 3.67058 11.9192 3.62635 11.8817 3.58917L8.68232 0.38979C8.64647 0.347926 8.60235 0.313924 8.55273 0.28992C8.50312 0.265915 8.44908 0.252425 8.394 0.250298C8.33892 0.24817 8.284 0.257451 8.23268 0.277557C8.18136 0.297663 8.13475 0.32816 8.09577 0.367135C8.0568 0.406109 8.0263 0.452719 8.0062 0.504039C7.98609 0.555359 7.97681 0.610282 7.97894 0.665359C7.98107 0.720436 7.99455 0.774478 8.01856 0.824095C8.04256 0.873711 8.07657 0.91783 8.11843 0.953682L10.6339 3.47319L0.399923 3.47319C0.293856 3.47319 0.192135 3.51533 0.117134 3.59033C0.0421341 3.66533 -1.53735e-07 3.76705 -1.58371e-07 3.87312C-1.63008e-07 3.97918 0.0421341 4.08091 0.117134 4.15591C0.192135 4.23091 0.293856 4.27304 0.399923 4.27304L10.6339 4.27304L8.11843 6.78855C8.08114 6.82558 8.05151 6.86959 8.03123 6.91806C8.01095 6.96654 8.00042 7.01854 8.00023 7.07108C8.00005 7.12363 8.01021 7.1757 8.03015 7.22432C8.05009 7.27294 8.07941 7.31716 8.11643 7.35445C8.15346 7.39173 8.19746 7.42136 8.24594 7.44164C8.29442 7.46192 8.34641 7.47246 8.39896 7.47264C8.45151 7.47283 8.50358 7.46266 8.5522 7.44273C8.60082 7.42279 8.64503 7.39347 8.68232 7.35644Z" fill="#76787B"/>
</svg>
