<svg viewBox="0 0 16 10" fill="none" xmlns="http://www.w3.org/2000/svg">
<path d="M11.5764 9.47526L15.8423 5.20942C15.8923 5.15985 15.9319 5.10087 15.959 5.03589C15.9861 4.97091 16 4.90122 16 4.83082C16 4.76043 15.9861 4.69073 15.959 4.62576C15.9319 4.56078 15.8923 4.5018 15.8423 4.45223L11.5764 0.186387C11.5286 0.130568 11.4698 0.0852323 11.4036 0.0532261C11.3375 0.0212199 11.2654 0.00323366 11.192 0.000397142C11.1186 -0.00243938 11.0453 0.00993473 10.9769 0.0367426C10.9085 0.0635506 10.8463 0.104214 10.7944 0.15618C10.7424 0.208145 10.7017 0.270292 10.6749 0.338719C10.6481 0.407146 10.6357 0.480375 10.6386 0.553811C10.6414 0.627247 10.6594 0.699305 10.6914 0.76546C10.7234 0.831615 10.7688 0.89044 10.8246 0.938242L14.1786 4.29759L0.533231 4.29759C0.391809 4.29759 0.25618 4.35377 0.15618 4.45377C0.0561798 4.55377 7.48694e-07 4.6894 7.42512e-07 4.83082C7.36331e-07 4.97224 0.0561798 5.10787 0.15618 5.20787C0.25618 5.30787 0.391809 5.36405 0.533231 5.36405L14.1786 5.36405L10.8246 8.71807C10.7749 8.76744 10.7353 8.82612 10.7083 8.89075C10.6813 8.95539 10.6672 9.02472 10.667 9.09478C10.6667 9.16484 10.6803 9.23427 10.7069 9.2991C10.7334 9.36392 10.7725 9.42288 10.8219 9.47259C10.8713 9.52231 10.93 9.56182 10.9946 9.58886C11.0592 9.6159 11.1286 9.62995 11.1986 9.63019C11.2687 9.63044 11.3381 9.61688 11.4029 9.5903C11.4678 9.56372 11.5267 9.52463 11.5764 9.47526Z" fill="#76787B"/>
</svg>
