<svg width="12" height="7" viewBox="0 0 12 7" fill="none" xmlns="http://www.w3.org/2000/svg">
<path d="M11.6008 0.590077C11.5481 0.589773 11.4958 0.599884 11.4469 0.619832C11.3981 0.63978 11.3537 0.669173 11.3162 0.706325L5.98889 6.03764L0.661587 0.706325C0.584904 0.640655 0.486264 0.606339 0.38538 0.610236C0.284495 0.614133 0.188796 0.655954 0.117407 0.727343C0.0460176 0.798733 0.00419568 0.894432 0.000298946 0.995316C-0.00359779 1.0962 0.0307177 1.19484 0.0963876 1.27152L5.7083 6.88344C5.7834 6.95809 5.885 7 5.9909 7C6.0968 7 6.19839 6.95809 6.2735 6.88344L11.8854 1.27152C11.9406 1.21525 11.9779 1.14397 11.9928 1.06659C12.0077 0.989204 11.9994 0.909154 11.969 0.836442C11.9387 0.763731 11.8875 0.701582 11.8221 0.657764C11.7566 0.613946 11.6796 0.590404 11.6008 0.590077Z" fill="#76787B"/>
</svg>
