<svg viewBox="0 0 16 16" fill="none" xmlns="http://www.w3.org/2000/svg">
<path d="M8 0C6.41775 0 4.87103 0.469192 3.55544 1.34824C2.23985 2.22729 1.21447 3.47672 0.608967 4.93853C0.00346629 6.40034 -0.15496 8.00887 0.153721 9.56072C0.462403 11.1126 1.22433 12.538 2.34315 13.6569C3.46197 14.7757 4.88743 15.5376 6.43928 15.8463C7.99113 16.155 9.59966 15.9965 11.0615 15.391C12.5233 14.7855 13.7727 13.7602 14.6518 12.4446C15.5308 11.129 16 9.58225 16 8C16 5.87827 15.1571 3.84344 13.6569 2.34315C12.1566 0.842854 10.1217 0 8 0ZM8 14.9333C6.62872 14.9333 5.28823 14.5267 4.14805 13.7649C3.00787 13.003 2.11921 11.9202 1.59444 10.6533C1.06967 9.38637 0.932368 7.99231 1.19989 6.64737C1.46742 5.30244 2.12775 4.06704 3.0974 3.09739C4.06704 2.12775 5.30244 1.46741 6.64738 1.19989C7.99231 0.932364 9.38637 1.06967 10.6533 1.59443C11.9202 2.1192 13.003 3.00787 13.7649 4.14805C14.5267 5.28823 14.9333 6.62871 14.9333 8C14.9333 9.83883 14.2029 11.6024 12.9026 12.9026C11.6024 14.2029 9.83883 14.9333 8 14.9333ZM10.512 6.02133C10.6113 6.12126 10.6671 6.25643 10.6671 6.39733C10.6671 6.53823 10.6113 6.67341 10.512 6.77333L8.37867 8.90666C8.27874 9.006 8.14357 9.06175 8.00267 9.06175C7.86177 9.06175 7.72659 9.006 7.62667 8.90666L3.89334 5.17333C3.80596 5.0713 3.76031 4.94006 3.76549 4.80584C3.77067 4.67161 3.82632 4.54428 3.9213 4.4493C4.01629 4.35431 4.14361 4.29867 4.27784 4.29349C4.41207 4.2883 4.54331 4.33396 4.64534 4.42133L8 7.78133L9.75467 6.02666C9.8039 5.97633 9.8626 5.93623 9.9274 5.9087C9.9922 5.88116 10.0618 5.86673 10.1322 5.86623C10.2026 5.86574 10.2724 5.87919 10.3376 5.90581C10.4028 5.93243 10.4621 5.97169 10.512 6.02133ZM7.46667 3.2V2.66667C7.46667 2.52522 7.52286 2.38956 7.62288 2.28954C7.7229 2.18952 7.85855 2.13333 8 2.13333C8.14145 2.13333 8.27711 2.18952 8.37712 2.28954C8.47714 2.38956 8.53333 2.52522 8.53333 2.66667V3.2C8.53333 3.34145 8.47714 3.4771 8.37712 3.57712C8.27711 3.67714 8.14145 3.73333 8 3.73333C7.85855 3.73333 7.7229 3.67714 7.62288 3.57712C7.52286 3.4771 7.46667 3.34145 7.46667 3.2ZM8.53333 12.8V13.3333C8.53333 13.4748 8.47714 13.6104 8.37712 13.7105C8.27711 13.8105 8.14145 13.8667 8 13.8667C7.85855 13.8667 7.7229 13.8105 7.62288 13.7105C7.52286 13.6104 7.46667 13.4748 7.46667 13.3333V12.8C7.46667 12.6585 7.52286 12.5229 7.62288 12.4229C7.7229 12.3229 7.85855 12.2667 8 12.2667C8.14145 12.2667 8.27711 12.3229 8.37712 12.4229C8.47714 12.5229 8.53333 12.6585 8.53333 12.8ZM13.8667 8C13.8667 8.14145 13.8105 8.2771 13.7105 8.37712C13.6104 8.47714 13.4748 8.53333 13.3333 8.53333H12.8C12.6586 8.53333 12.5229 8.47714 12.4229 8.37712C12.3229 8.2771 12.2667 8.14145 12.2667 8C12.2667 7.85855 12.3229 7.72289 12.4229 7.62287C12.5229 7.52285 12.6586 7.46666 12.8 7.46666H13.3333C13.4748 7.46666 13.6104 7.52285 13.7105 7.62287C13.8105 7.72289 13.8667 7.85855 13.8667 8ZM3.73334 8C3.73334 8.14145 3.67715 8.2771 3.57713 8.37712C3.47711 8.47714 3.34145 8.53333 3.2 8.53333H2.66667C2.52522 8.53333 2.38957 8.47714 2.28955 8.37712C2.18953 8.2771 2.13334 8.14145 2.13334 8C2.13334 7.85855 2.18953 7.72289 2.28955 7.62287C2.38957 7.52285 2.52522 7.46666 2.66667 7.46666H3.2C3.34145 7.46666 3.47711 7.52285 3.57713 7.62287C3.67715 7.72289 3.73334 7.85855 3.73334 8Z" fill="#97999B"/>
</svg>
