<svg viewBox="0 0 12 12" fill="none" xmlns="http://www.w3.org/2000/svg">
<path d="M6.71809 5.96043L11.8553 0.828173C11.9371 0.732759 11.9797 0.610025 11.9749 0.484499C11.9701 0.358973 11.918 0.239899 11.8292 0.151072C11.7404 0.0622451 11.6213 0.0102078 11.4958 0.00535923C11.3702 0.000510686 11.2475 0.043208 11.1521 0.124918L6.01484 5.25718L0.882581 0.119931C0.787167 0.0382202 0.664434 -0.00447657 0.538907 0.000371969C0.413381 0.00522051 0.294307 0.0572573 0.20548 0.146084C0.116654 0.234911 0.0646164 0.353985 0.0597678 0.479511C0.0549193 0.605038 0.0976166 0.727771 0.179327 0.823185L5.31159 5.96043L0.174339 11.0927C0.122128 11.1374 0.079723 11.1924 0.0497857 11.2543C0.0198484 11.3162 0.00302483 11.3836 0.000371667 11.4523C-0.00228149 11.521 0.00929274 11.5895 0.0343678 11.6535C0.0594428 11.7175 0.0974775 11.7756 0.146084 11.8242C0.194691 11.8728 0.25282 11.9108 0.316824 11.9359C0.380828 11.961 0.449324 11.9726 0.518013 11.9699C0.586702 11.9673 0.654101 11.9504 0.71598 11.9205C0.777858 11.8906 0.832881 11.8482 0.877593 11.7959L6.01484 6.66369L11.1471 11.8009C11.2425 11.8826 11.3652 11.9253 11.4908 11.9205C11.6163 11.9156 11.7354 11.8636 11.8242 11.7748C11.913 11.686 11.9651 11.5669 11.9699 11.4414C11.9748 11.3158 11.9321 11.1931 11.8504 11.0977L6.71809 5.96043Z" fill="#76787B"/>
</svg>
