<svg
    width="24"
    height="24"
    viewBox="0 0 24 24"
    fill="none"
    xmlns="http://www.w3.org/2000/svg"
>
    <path
      d="M12 -1.90735e-05C18.6274 -1.90735e-05 24 5.37257 24 12C24 18.6274 18.6274 24 12 24C5.37258 24 0 18.6274 0 12C0 5.37257 5.37258 -1.90735e-05 12 -1.90735e-05Z"
      fill="#F1F1F2"
    />
    <path
      d="M12 22C10.0222 22 8.08879 21.4135 6.4443 20.3147C4.79981 19.2159 3.51809 17.6541 2.76121 15.8268C2.00433 13.9996 1.8063 11.9889 2.19215 10.0491C2.578 8.10929 3.53041 6.32746 4.92894 4.92894C6.32746 3.53041 8.10929 2.578 10.0491 2.19215C11.9889 1.8063 13.9996 2.00433 15.8268 2.76121C17.6541 3.51809 19.2159 4.79981 20.3147 6.4443C21.4135 8.08879 22 10.0222 22 12C22 14.6522 20.9464 17.1957 19.0711 19.0711C17.1957 20.9464 14.6522 22 12 22ZM19.68 8H15.68C15.863 9.10245 15.97 10.2162 16 11.3333H20.6667C20.5683 10.1666 20.2325 9.03229 19.68 8ZM12 3.33334C11.3333 3.33334 10.52 4.55334 9.96 6.66667H14.0333C13.48 4.55334 12.6667 3.33334 12 3.33334ZM9.67334 8C9.47665 9.10103 9.36299 10.2153 9.33334 11.3333H14.6667C14.6414 10.2156 14.5322 9.10137 14.34 8H9.67334ZM3.37334 11.3333H8.04C8.06784 10.2164 8.17253 9.10261 8.35334 8H4.35334C3.8008 9.03229 3.46504 10.1666 3.36667 11.3333H3.37334ZM4.32667 16H8.32667C8.14139 14.8977 8.03225 13.784 8 12.6667H3.33334C3.4317 13.8334 3.76746 14.9677 4.32 16H4.32667ZM12 20.6667C12.6667 20.6667 13.48 19.4467 14.04 17.3333H9.96C10.52 19.4467 11.3333 20.6667 12 20.6667ZM14.3267 16C14.5234 14.899 14.637 13.7847 14.6667 12.6667H9.33334C9.35859 13.7844 9.46778 14.8986 9.66 16H14.3267ZM16 12.6667C15.9722 13.7837 15.8675 14.8974 15.6867 16H19.6867C20.2276 14.9652 20.552 13.831 20.64 12.6667H16ZM18.8267 17.3333H15.4067C15.176 18.3933 14.7895 19.4133 14.26 20.36C16.067 19.8701 17.6668 18.8083 18.82 17.3333H18.8267ZM9.74 20.36C9.21046 19.4133 8.82404 18.3933 8.59334 17.3333H5.18C6.33318 18.8083 7.93298 19.8701 9.74 20.36ZM5.18 6.66667H8.58667C8.81737 5.6067 9.20379 4.58675 9.73334 3.64C7.92874 4.13117 6.33145 5.19291 5.18 6.66667ZM14.26 3.64C14.7895 4.58675 15.176 5.6067 15.4067 6.66667H18.8133C17.6619 5.19291 16.0646 4.13117 14.26 3.64Z"
      fill="#76787B"
    />
  </svg>