<svg viewBox="0 0 16 16" fill="none" xmlns="http://www.w3.org/2000/svg">
<path d="M15.9759 4.30769C15.972 4.15053 15.9082 4.0008 15.7974 3.88923L12.1051 0.196923C12.0491 0.136544 11.9816 0.0880055 11.9066 0.0541804C11.8315 0.0203554 11.7505 0.00193183 11.6682 0H4.89895C4.73574 0 4.57921 0.0648351 4.46381 0.180242C4.3484 0.295649 4.28356 0.452174 4.28356 0.615385V2.46154C4.28356 2.62475 4.3484 2.78127 4.46381 2.89668C4.57921 3.01209 4.73574 3.07692 4.89895 3.07692C5.06216 3.07692 5.21869 3.01209 5.33409 2.89668C5.4495 2.78127 5.51433 2.62475 5.51433 2.46154V1.23077H11.0528V4.30769C11.0528 4.4709 11.1176 4.62743 11.233 4.74284C11.3484 4.85824 11.505 4.92308 11.6682 4.92308H14.7451V14.7692H5.51433V12.3077C5.51433 12.1445 5.4495 11.988 5.33409 11.8726C5.21869 11.7571 5.06216 11.6923 4.89895 11.6923C4.73574 11.6923 4.57921 11.7571 4.46381 11.8726C4.3484 11.988 4.28356 12.1445 4.28356 12.3077V15.3846C4.28356 15.5478 4.3484 15.7044 4.46381 15.8198C4.57921 15.9352 4.73574 16 4.89895 16H15.3605C15.5237 16 15.6802 15.9352 15.7956 15.8198C15.911 15.7044 15.9759 15.5478 15.9759 15.3846V4.30769ZM12.2836 3.69231V2.09846L13.8774 3.69231H12.2836ZM5.98203 11.0769L8.44356 11.6923C8.49262 11.6982 8.5422 11.6982 8.59126 11.6923C8.68615 11.6951 8.78039 11.6759 8.86663 11.6362C8.95286 11.5965 9.02874 11.5374 9.08833 11.4635C9.14792 11.3896 9.18961 11.3029 9.21014 11.2102C9.23066 11.1176 9.22947 11.0214 9.20664 10.9292L8.59126 8.46769C8.56427 8.36069 8.50901 8.26292 8.43126 8.18462L2.8928 2.64615C2.7775 2.53154 2.62152 2.4672 2.45895 2.4672C2.29637 2.4672 2.1404 2.53154 2.0251 2.64615L0.178949 4.49231C0.0643332 4.60761 0 4.76358 0 4.92615C0 5.08873 0.0643332 5.2447 0.178949 5.36L5.71741 10.8985C5.78839 10.9802 5.87966 11.0417 5.98203 11.0769ZM7.52049 9.34769L7.74818 10.2523L6.84356 10.0246L7.52049 9.34769ZM2.43741 3.94462L6.80049 8.30769L5.82203 9.28615L1.45895 4.92308L2.43741 3.94462ZM13.5143 11.0769C13.5143 11.2401 13.4495 11.3967 13.3341 11.5121C13.2187 11.6275 13.0622 11.6923 12.8989 11.6923H11.0528C10.8896 11.6923 10.7331 11.6275 10.6177 11.5121C10.5022 11.3967 10.4374 11.2401 10.4374 11.0769C10.4374 10.9137 10.5022 10.7572 10.6177 10.6418C10.7331 10.5264 10.8896 10.4615 11.0528 10.4615H12.8989C13.0622 10.4615 13.2187 10.5264 13.3341 10.6418C13.4495 10.7572 13.5143 10.9137 13.5143 11.0769ZM13.5143 8.61539C13.5143 8.77859 13.4495 8.93512 13.3341 9.05053C13.2187 9.16594 13.0622 9.23077 12.8989 9.23077H10.4374C10.2742 9.23077 10.1177 9.16594 10.0023 9.05053C9.88686 8.93512 9.82203 8.77859 9.82203 8.61539C9.82203 8.45218 9.88686 8.29565 10.0023 8.18024C10.1177 8.06483 10.2742 8 10.4374 8H12.8989C13.0622 8 13.2187 8.06483 13.3341 8.18024C13.4495 8.29565 13.5143 8.45218 13.5143 8.61539Z" fill="#97999B"/>
</svg>
