<svg viewBox="0 0 15 16" fill="none" xmlns="http://www.w3.org/2000/svg">
<path d="M7.14315 12.8839C7.99068 12.8839 8.81918 12.6326 9.52388 12.1617C10.2286 11.6909 10.7778 11.0216 11.1022 10.2386C11.4265 9.45559 11.5114 8.59398 11.346 7.76274C11.1807 6.93149 10.7725 6.16794 10.1732 5.56865C9.57395 4.96935 8.8104 4.56123 7.97915 4.39588C7.14791 4.23054 6.2863 4.3154 5.50328 4.63973C4.72026 4.96407 4.05101 5.51331 3.58015 6.21801C3.10928 6.92271 2.85796 7.7512 2.85796 8.59873C2.85796 9.73524 3.30943 10.8252 4.11306 11.6288C4.91669 12.4325 6.00665 12.8839 7.14315 12.8839ZM7.14315 5.26581C7.32408 5.26581 7.6669 5.74194 7.89068 6.69421H6.39562C6.61941 5.74194 6.96222 5.26581 7.14315 5.26581ZM8.0478 7.64647C8.11219 8.27968 8.11219 8.91779 8.0478 9.551H6.2385C6.17411 8.91779 6.17411 8.27968 6.2385 7.64647H8.0478ZM10.4761 8.59873C10.4764 8.92116 10.4298 9.24193 10.338 9.551H9.00007C9.02864 9.23675 9.04768 8.91774 9.04768 8.59873C9.04768 8.27973 9.04768 7.96072 9.00007 7.64647H10.3332C10.4267 7.9553 10.4748 8.27607 10.4761 8.59873ZM7.14315 11.9317C6.96222 11.9317 6.61941 11.4555 6.39562 10.5033H7.89068C7.6669 11.4555 7.32408 11.9317 7.14315 11.9317ZM5.28624 9.551H3.95306C3.76587 8.92996 3.76587 8.26751 3.95306 7.64647H5.28624C5.25767 7.96072 5.23862 8.27973 5.23862 8.59873C5.23862 8.91774 5.23862 9.23675 5.28624 9.551ZM4.41491 10.5033H5.42431C5.49989 10.888 5.61312 11.2644 5.76237 11.6269C5.21918 11.3802 4.75219 10.9921 4.41015 10.5033H4.41491ZM8.5287 11.6269C8.67632 11.2642 8.78795 10.8878 8.86199 10.5033H9.87139C9.53066 10.9914 9.06538 11.3794 8.52394 11.6269H8.5287ZM9.87615 6.69421H8.86199C8.78642 6.30947 8.67318 5.9331 8.52394 5.57053C9.06712 5.81731 9.53411 6.20537 9.87615 6.69421ZM5.76237 5.57053C5.61312 5.9331 5.49989 6.30947 5.42431 6.69421H4.41015C4.75219 6.20537 5.21918 5.81731 5.76237 5.57053ZM14.2851 8.59873C14.3527 10.4929 13.665 12.3363 12.3734 13.7235C11.0818 15.1106 9.29206 15.9279 7.39788 15.9955C5.50371 16.063 3.66028 15.3753 2.27313 14.0837C0.885973 12.7921 0.068724 11.0024 0.00116513 9.1082C-0.00321173 9.04567 0.00476979 8.98289 0.024654 8.92345C0.0445382 8.86401 0.0759357 8.80907 0.117054 8.76176C0.200095 8.66622 0.31769 8.60757 0.443968 8.59873C0.570247 8.5899 0.694864 8.63158 0.790407 8.71462C0.885949 8.79767 0.944591 8.91526 0.95343 9.04154C1.03961 10.2431 1.47456 11.3934 2.20493 12.3515C2.9353 13.3095 3.92936 14.0335 5.06521 14.4349C6.20107 14.8362 7.42935 14.8973 8.59945 14.6108C9.76955 14.3243 10.8306 13.7026 11.6525 12.8218C12.4745 11.9411 13.0215 10.8397 13.2266 9.65262C13.4317 8.46554 13.286 7.2444 12.8073 6.13894C12.3285 5.03348 11.5376 4.09174 10.5315 3.4292C9.5254 2.76665 8.34782 2.4121 7.14315 2.40901H6.86223L7.47645 3.02322C7.52629 3.06591 7.56677 3.11843 7.59535 3.17751C7.62393 3.23658 7.63999 3.30092 7.64252 3.36649C7.64505 3.43206 7.634 3.49745 7.61007 3.55855C7.58613 3.61965 7.54982 3.67514 7.50342 3.72154C7.45702 3.76795 7.40153 3.80425 7.34043 3.82819C7.27933 3.85213 7.21394 3.86318 7.14836 3.86065C7.08279 3.85811 7.01845 3.84205 6.95938 3.81347C6.90031 3.78489 6.84778 3.74441 6.8051 3.69457L5.3767 2.26617C5.28802 2.17696 5.23824 2.05629 5.23824 1.9305C5.23824 1.80471 5.28802 1.68404 5.3767 1.59483L6.8051 0.166429C6.84778 0.116587 6.90031 0.0761055 6.95938 0.0475264C7.01845 0.0189474 7.08279 0.00288759 7.14836 0.00035481C7.21394 -0.00217797 7.27933 0.0088709 7.34043 0.0328083C7.40153 0.0567456 7.45702 0.0930546 7.50342 0.139456C7.54982 0.185857 7.58613 0.241349 7.61007 0.302449C7.634 0.363549 7.64505 0.428937 7.64252 0.49451C7.63999 0.560082 7.62393 0.624423 7.59535 0.683495C7.56677 0.742566 7.52629 0.795092 7.47645 0.837776L6.86223 1.45675H7.14315C9.03732 1.45675 10.8539 2.20921 12.1933 3.54859C13.5327 4.88797 14.2851 6.70456 14.2851 8.59873Z" fill="#97999B"/>
</svg>
