<svg
    viewBox="0 0 134 38"
    fill="none"
    xmlns="http://www.w3.org/2000/svg"
  >
  <path
    fillRule="evenodd"
    clip-rule="evenodd"
    d="M57.5574 15.5129C58.9331 15.5129 59.8909 16.3459 60.0628 17.6444L63.5759 17.3504C63.3549 15.8559 62.667 14.6553 61.5614 13.7732C60.4561 12.8914 59.1295 12.4502 57.5574 12.4502C55.6411 12.4502 54.069 13.0383 52.8654 14.2144C51.6615 15.3904 51.0475 17.0074 51.0475 19.0407C51.0475 21.0743 51.6615 22.6667 52.8654 23.8673C54.069 25.0434 55.6411 25.6313 57.5574 25.6313C59.1295 25.6313 60.4561 25.1904 61.5614 24.3328C62.667 23.4752 63.3301 22.2995 63.5759 20.8049L60.0876 20.4865C59.8909 21.7604 58.9576 22.5443 57.5574 22.5443C55.8625 22.5443 54.683 21.2213 54.683 19.0407C54.683 16.8113 55.8625 15.5129 57.5574 15.5129ZM32.7648 3.44853C29.9342 1.34607 26.0649 0.27059 21.2801 0.0469941C20.6447 0.0173609 19.9957 0 19.328 0C18.5304 0 17.7568 0.0203541 17.0053 0.0604638C12.7021 0.289448 9.16249 1.18623 6.4465 2.86515C2.4497 5.68749 0.44392 10.5003 0.0672515 16.8802C0.0232214 17.6273 0 18.3945 0 19.1838C0 19.8459 0.017793 20.4897 0.0488554 21.1198C0.3444 27.1417 2.06942 31.6992 5.52066 34.5515C8.35125 36.6539 12.2205 37.7297 17.0053 37.953C17.641 37.9826 18.2897 38 18.9574 38C19.7551 38 20.5286 37.9797 21.2801 37.9395C25.5833 37.7106 29.1229 36.8138 31.8392 35.1349C35.8357 32.3125 37.8418 27.4997 38.2182 21.1198C38.2622 20.3727 38.2857 19.6055 38.2857 18.8162C38.2857 18.1541 38.2676 17.5103 38.2366 16.8802C37.941 10.8583 36.2163 6.30081 32.7648 3.44853ZM12.7615 19C12.7615 21.3443 14.0441 23.3908 15.9513 24.4857L12.7603 29.9724C8.94626 27.7819 6.38045 23.6883 6.38045 19C6.38045 12.0036 12.0947 6.33224 19.1426 6.33224C21.4671 6.33224 23.6469 6.94915 25.5242 8.02792L22.3329 13.5143C21.3944 12.9746 20.3045 12.6663 19.1426 12.6663C15.6183 12.6663 12.7615 15.5018 12.7615 19ZM25.5233 29.9703C23.9976 30.8452 22.0464 30.3265 21.1652 28.8113C20.2904 27.3075 20.7997 25.3879 22.3004 24.5049C22.3203 24.4941 22.3402 24.4828 22.3592 24.4708C23.8815 23.6162 25.8158 24.1388 26.691 25.6444C27.5725 27.1593 27.0499 29.0963 25.5233 29.9703ZM132.083 14.2632C130.831 13.0629 129.209 12.4502 127.244 12.4502C125.279 12.4502 123.657 13.0629 122.38 14.2632C121.127 15.4638 120.488 17.0565 120.488 19.0407C120.488 21.001 121.127 22.5934 122.38 23.8182C123.657 25.0188 125.279 25.6313 127.244 25.6313C129.209 25.6313 130.831 25.0188 132.083 23.8182C133.361 22.5934 133.999 21.001 133.999 19.0407C133.999 17.0565 133.361 15.4638 132.083 14.2632ZM129.504 21.6134C128.939 22.2258 128.177 22.5443 127.244 22.5443C126.31 22.5443 125.549 22.2258 124.984 21.6134C124.419 21.001 124.124 20.1434 124.124 19.0407C124.124 17.9383 124.419 17.0807 124.984 16.4683C125.549 15.8313 126.31 15.5129 127.244 15.5129C128.177 15.5129 128.939 15.8313 129.504 16.4683C130.069 17.0807 130.364 17.9383 130.364 19.0407C130.364 20.1434 130.069 21.001 129.504 21.6134ZM65.8905 25.3619H69.4771V6.32535H65.8905V25.3619ZM116.379 6.39869C114.586 6.30081 113.48 8.84867 114.856 10.0738C115.667 10.8823 117.091 10.8823 117.902 10.0738C118.32 9.65745 118.541 9.1429 118.541 8.55473C118.541 7.35443 117.582 6.39869 116.379 6.39869ZM106.093 20.1434L103.12 12.6953H99.1652L104.643 25.3619H107.517L112.996 12.6953H109.04L106.093 20.1434ZM114.586 25.3619H118.172V12.6953H114.586V25.3619ZM92.7362 12.4502C90.82 12.4502 89.2723 13.0383 88.0687 14.2389C86.8648 15.4147 86.2753 17.0074 86.2753 19.0407C86.2753 21.0498 86.8648 22.6422 88.0687 23.8428C89.2723 25.0434 90.8689 25.6313 92.8342 25.6313C94.3328 25.6313 95.6103 25.2394 96.6911 24.4798C97.7964 23.7204 98.4599 22.7158 98.6809 21.5152L95.0698 21.3437C94.7996 22.2749 94.0134 22.7404 92.7362 22.7404C91.1394 22.7404 90.1565 21.7604 90.083 20.168H98.804V18.7468C98.804 16.7868 98.2632 15.2435 97.1579 14.1407C96.0524 13.0138 94.5786 12.4502 92.7362 12.4502ZM90.083 17.7913C90.1813 16.1989 91.1638 15.2435 92.7115 15.2435C94.2836 15.2435 95.119 16.1989 95.1926 17.7913H90.083ZM78.3869 12.4502C76.4707 12.4502 74.923 13.0383 73.7194 14.2389C72.5158 15.4147 71.9263 17.0074 71.9263 19.0407C71.9263 21.0498 72.5158 22.6422 73.7194 23.8428C74.923 25.0434 76.5199 25.6313 78.4852 25.6313C79.9838 25.6313 81.261 25.2394 82.3418 24.4798C83.4474 23.7204 84.1105 22.7158 84.3319 21.5152L80.7205 21.3437C80.4503 22.2749 79.6644 22.7404 78.3869 22.7404C76.7901 22.7404 75.8075 21.7604 75.7337 20.168H84.4546V18.7468C84.4546 16.7868 83.9142 15.2435 82.8086 14.1407C81.7034 13.0138 80.2293 12.4502 78.3869 12.4502ZM75.7337 17.7913C75.832 16.1989 76.8148 15.2435 78.3622 15.2435C79.9346 15.2435 80.7697 16.1989 80.8436 17.7913H75.7337Z"
    fill="#1C252B"
  />
</svg>