<svg
    viewBox="0 0 16 16"
    fill="none"
    xmlns="http://www.w3.org/2000/svg"
  >
    <path
      d="M15.4667 7.46667H8.53333V0.533333C8.53333 0.391885 8.47714 0.256229 8.37712 0.15621C8.27711 0.0561904 8.14145 0 8 0C7.85855 0 7.7229 0.0561904 7.62288 0.15621C7.52286 0.256229 7.46667 0.391885 7.46667 0.533333V7.46667H0.533333C0.391885 7.46667 0.256229 7.52286 0.15621 7.62288C0.0561904 7.7229 0 7.85855 0 8C0 8.14145 0.0561904 8.27711 0.15621 8.37712C0.256229 8.47714 0.391885 8.53333 0.533333 8.53333H7.46667V15.4667C7.46667 15.6081 7.52286 15.7438 7.62288 15.8438C7.7229 15.9438 7.85855 16 8 16C8.14145 16 8.27711 15.9438 8.37712 15.8438C8.47714 15.7438 8.53333 15.6081 8.53333 15.4667V8.53333H15.4667C15.6081 8.53333 15.7438 8.47714 15.8438 8.37712C15.9438 8.27711 16 8.14145 16 8C16 7.85855 15.9438 7.7229 15.8438 7.62288C15.7438 7.52286 15.6081 7.46667 15.4667 7.46667Z"
      fill="black"
    />
  </svg>