<svg viewBox="0 0 11 16" fill="none" xmlns="http://www.w3.org/2000/svg">
<path d="M0.533691 3.19143H10.1401C10.2817 3.19143 10.4174 3.1352 10.5175 3.03511C10.6176 2.93503 10.6738 2.79928 10.6738 2.65774C10.6738 2.51619 10.6176 2.38045 10.5175 2.28036C10.4174 2.18028 10.2817 2.12405 10.1401 2.12405H8.34692C8.13123 1.5208 7.73955 0.996126 7.22251 0.61784C6.70548 0.239553 6.08686 0.0250515 5.44662 0.00206293C4.80639 -0.0209257 4.17398 0.148656 3.63115 0.488886C3.08831 0.829116 2.66001 1.32435 2.40161 1.91057C2.36959 1.97995 2.34824 2.05467 2.32155 2.12405H0.533691C0.392147 2.12405 0.256401 2.18028 0.156314 2.28036C0.056228 2.38045 0 2.51619 0 2.65774C0 2.79928 0.056228 2.93503 0.156314 3.03511C0.256401 3.1352 0.392147 3.19143 0.533691 3.19143ZM5.33691 1.05667C5.71126 1.05705 6.07894 1.15587 6.40305 1.34322C6.72715 1.53056 6.99629 1.79984 7.18347 2.12405H3.49034C3.67752 1.79984 3.94666 1.53056 4.27076 1.34322C4.59487 1.15587 4.96255 1.05705 5.33691 1.05667ZM10.1401 4.25881H0.533691C0.392147 4.25881 0.256401 4.31504 0.156314 4.41512C0.056228 4.51521 0 4.65096 0 4.7925C0 4.93404 0.056228 5.06979 0.156314 5.16988C0.256401 5.26996 0.392147 5.32619 0.533691 5.32619V15.4663C0.533691 15.6079 0.589919 15.7436 0.690005 15.8437C0.790091 15.9438 0.925838 16 1.06738 16H9.60643C9.74797 16 9.88372 15.9438 9.98381 15.8437C10.0839 15.7436 10.1401 15.6079 10.1401 15.4663V5.32619C10.2817 5.32619 10.4174 5.26996 10.5175 5.16988C10.6176 5.06979 10.6738 4.93404 10.6738 4.7925C10.6738 4.65096 10.6176 4.51521 10.5175 4.41512C10.4174 4.31504 10.2817 4.25881 10.1401 4.25881ZM9.07274 14.9326H1.60107V5.32619H9.07274V14.9326ZM2.66845 13.3315V6.92726C2.66845 6.78572 2.72468 6.64997 2.82477 6.54989C2.92485 6.4498 3.0606 6.39357 3.20214 6.39357C3.34369 6.39357 3.47943 6.4498 3.57952 6.54989C3.67961 6.64997 3.73583 6.78572 3.73583 6.92726V13.3315C3.73583 13.4731 3.67961 13.6088 3.57952 13.7089C3.47943 13.809 3.34369 13.8652 3.20214 13.8652C3.0606 13.8652 2.92485 13.809 2.82477 13.7089C2.72468 13.6088 2.66845 13.4731 2.66845 13.3315ZM4.80321 13.3315V6.92726C4.80321 6.78572 4.85944 6.64997 4.95953 6.54989C5.05962 6.4498 5.19536 6.39357 5.33691 6.39357C5.47845 6.39357 5.6142 6.4498 5.71428 6.54989C5.81437 6.64997 5.8706 6.78572 5.8706 6.92726V13.3315C5.8706 13.4731 5.81437 13.6088 5.71428 13.7089C5.6142 13.809 5.47845 13.8652 5.33691 13.8652C5.19536 13.8652 5.05962 13.809 4.95953 13.7089C4.85944 13.6088 4.80321 13.4731 4.80321 13.3315ZM6.93798 13.3315V6.92726C6.93798 6.78572 6.9942 6.64997 7.09429 6.54989C7.19438 6.4498 7.33012 6.39357 7.47167 6.39357C7.61321 6.39357 7.74896 6.4498 7.84904 6.54989C7.94913 6.64997 8.00536 6.78572 8.00536 6.92726V13.3315C8.00536 13.4731 7.94913 13.6088 7.84904 13.7089C7.74896 13.809 7.61321 13.8652 7.47167 13.8652C7.33012 13.8652 7.19438 13.809 7.09429 13.7089C6.9942 13.6088 6.93798 13.4731 6.93798 13.3315Z" fill="#D33927"/>
</svg>
